<svg width="44" height="24" viewBox="0 0 44 24" fill="none" xmlns="http://www.w3.org/2000/svg">
<path fill-rule="evenodd" clip-rule="evenodd" d="M12 3.5C9.74561 3.5 7.58361 4.39553 5.98955 5.98959C4.39549 7.58365 3.49995 9.74566 3.49995 12C3.49995 14.2543 4.39549 16.4163 5.98955 18.0104C7.58361 19.6045 9.74561 20.5 12 20.5C13.194 20.5 14.09 20.286 14.814 19.932C15.538 19.58 16.172 19.048 16.786 18.3C17.866 16.98 18.752 15.184 19.92 12.818C20.1533 12.3447 20.4 11.8487 20.66 11.33L21.34 9.95C22.502 7.588 23.574 5.41 24.894 3.8C25.714 2.798 26.674 1.954 27.874 1.37C29.074 0.786001 30.432 0.500001 32 0.500001C33.8222 0.500001 35.6183 0.933012 37.2403 1.76335C38.8623 2.59369 40.2638 3.79759 41.3292 5.27583C42.3947 6.75407 43.0936 8.46435 43.3684 10.2657C43.6432 12.0671 43.486 13.9079 42.9098 15.6366C42.3336 17.3653 41.3548 18.9323 40.0542 20.2085C38.7535 21.4847 37.1682 22.4336 35.4289 22.9769C33.6896 23.5202 31.846 23.6425 30.0502 23.3335C28.2544 23.0246 26.5577 22.2933 25.1 21.2C24.7817 20.9613 24.5713 20.606 24.515 20.2121C24.4588 19.8183 24.5613 19.4183 24.8 19.1C25.0386 18.7817 25.394 18.5713 25.7878 18.5151C26.1816 18.4588 26.5817 18.5613 26.9 18.8C27.9774 19.6081 29.2315 20.1486 30.5589 20.3769C31.8862 20.6053 33.2488 20.5149 34.5344 20.1134C35.82 19.7118 36.9917 19.0105 37.9531 18.0672C38.9144 17.1239 39.6379 15.9657 40.0638 14.6879C40.4897 13.4102 40.6059 12.0496 40.4027 10.7181C40.1996 9.38669 39.683 8.12258 38.8955 7.02996C38.108 5.93735 37.0721 5.04751 35.8732 4.43378C34.6744 3.82005 33.3468 3.5 32 3.5C30.806 3.5 29.91 3.714 29.186 4.068C28.462 4.42 27.828 4.952 27.214 5.7C26.134 7.02 25.248 8.816 24.08 11.182C23.8466 11.6553 23.6 12.1513 23.34 12.67L22.66 14.05C21.498 16.412 20.426 18.59 19.106 20.202C18.286 21.202 17.326 22.046 16.126 22.63C14.926 23.214 13.566 23.5 12 23.5C10.1778 23.4997 8.38188 23.0664 6.76007 22.2359C5.13825 21.4053 3.73701 20.2013 2.67179 18.723C1.60658 17.2446 0.907886 15.5344 0.633292 13.7331C0.358698 11.9318 0.51606 10.091 1.09241 8.36243C1.66877 6.63388 2.64761 5.06701 3.94829 3.79095C5.24897 2.51489 6.83425 1.56617 8.5735 1.02295C10.3128 0.479727 12.1562 0.357566 13.9519 0.666528C15.7477 0.975491 17.4443 1.70673 18.902 2.8C19.0595 2.91832 19.1923 3.06652 19.2926 3.23614C19.3929 3.40576 19.4588 3.59348 19.4866 3.78858C19.5144 3.98367 19.5034 4.18233 19.4544 4.3732C19.4054 4.56407 19.3193 4.74342 19.201 4.901C19.0826 5.05859 18.9344 5.19132 18.7648 5.29164C18.5952 5.39195 18.4075 5.45787 18.2124 5.48563C18.0173 5.5134 17.8186 5.50246 17.6278 5.45345C17.4369 5.40444 17.2575 5.31832 17.1 5.2C15.63 4.09391 13.8396 3.4971 12 3.5Z" fill="#FFB447"/>
</svg>
